<svg
    width="27"
    height="27"
    viewBox="0 0 27 27"
    fill="none"
    xmlns="http://www.w3.org/2000/svg"
>
<path
        d="M21.3158 14.2105C20.5342 14.2105 19.8947 14.85 19.8947 15.6316V22.6799C19.8947 23.4615 19.2553 24.1009 18.4737 24.1009H4.26316C3.48158 24.1009 2.84211 23.4615 2.84211 22.6799V8.52632C2.84211 7.74474 3.48158 7.10526 4.26316 7.10526H11.3684C12.15 7.10526 12.7895 6.46579 12.7895 5.68421C12.7895 4.90263 12.15 4.26316 11.3684 4.26316H2.84211C1.27895 4.26316 0 5.5421 0 7.10526V24.1579C0 25.7211 1.27895 27 2.84211 27H19.8947C21.4579 27 22.7368 25.7211 22.7368 24.1579V15.6316C22.7368 14.85 22.0974 14.2105 21.3158 14.2105ZM25.6074 4.26316H22.7368V1.39263C22.7368 0.625263 22.1116 0 21.3442 0H21.3016C20.52 0 19.8947 0.625263 19.8947 1.39263V4.26316H17.0384C16.2711 4.26316 15.6458 4.88842 15.6316 5.65579V5.69842C15.6316 6.48 16.2568 7.10526 17.0384 7.10526H19.8947V9.96158C19.8947 10.7289 20.52 11.3684 21.3016 11.3542H21.3442C22.1116 11.3542 22.7368 10.7289 22.7368 9.96158V7.10526H25.6074C26.3747 7.10526 27 6.48 27 5.71263V5.65579C27 4.88842 26.3747 4.26316 25.6074 4.26316Z"
        fill="#2FDE9F"
    />
<path
        d="M15.6316 9.94739H7.10524C6.32366 9.94739 5.68419 10.5869 5.68419 11.3684C5.68419 12.15 6.32366 12.7895 7.10524 12.7895H15.6316C16.4131 12.7895 17.0526 12.15 17.0526 11.3684C17.0526 10.5869 16.4131 9.94739 15.6316 9.94739ZM15.6316 14.2105H7.10524C6.32366 14.2105 5.68419 14.85 5.68419 15.6316C5.68419 16.4132 6.32366 17.0526 7.10524 17.0526H15.6316C16.4131 17.0526 17.0526 16.4132 17.0526 15.6316C17.0526 14.85 16.4131 14.2105 15.6316 14.2105ZM15.6316 18.4737H7.10524C6.32366 18.4737 5.68419 19.1132 5.68419 19.8948C5.68419 20.6763 6.32366 21.3158 7.10524 21.3158H15.6316C16.4131 21.3158 17.0526 20.6763 17.0526 19.8948C17.0526 19.1132 16.4131 18.4737 15.6316 18.4737Z"
        fill="#2FDE9F"
    />
</svg>
