<svg
    width="30"
    height="23"
    viewBox="0 0 30 23"
    fill="none"
    xmlns="http://www.w3.org/2000/svg"
>
<path
        d="M13.1053 0C12.553 0 12.1053 0.447715 12.1053 1V2.73579L14.5263 4.34579V2.42105H26.6316V20.5789H21.5789C21.0267 20.5789 20.5789 21.0267 20.5789 21.5789V22C20.5789 22.5523 21.0267 23 21.5789 23H28.0526C28.6049 23 29.0526 22.5523 29.0526 22V1C29.0526 0.447715 28.6049 0 28.0526 0H13.1053ZM9.63365 4.00138C9.29775 3.77745 8.86015 3.77745 8.52425 4.00138L0.4453 9.38734C0.167102 9.57281 0 9.88504 0 10.2194V23H18.1579V10.2194C18.1579 9.88504 17.9908 9.57281 17.7126 9.38734L9.63365 4.00138ZM16.9474 4.84211V5.96789L18.8963 7.26316H19.3684V4.84211H16.9474ZM21.7895 4.84211V7.26316H24.2105V4.84211H21.7895ZM8.54207 6.99954C8.86964 6.79109 9.28826 6.79109 9.61582 6.99954L15.2737 10.6C15.5622 10.7836 15.7368 11.1018 15.7368 11.4437V20.5789H12.1053V14.3158C12.1053 13.7635 11.6575 13.3158 11.1053 13.3158H7.05263C6.50035 13.3158 6.05263 13.7635 6.05263 14.3158V20.5789H2.42105V11.4437C2.42105 11.1018 2.59573 10.7836 2.88418 10.6L8.54207 6.99954ZM21.7895 9.68421V12.1053H24.2105V9.68421H21.7895ZM21.7895 14.5263V16.9474H24.2105V14.5263H21.7895Z"
        fill="#2FDE9F"
    />
</svg>
