<svg
    width="23"
    height="27"
    viewBox="0 0 23 27"
    fill="none"
    xmlns="http://www.w3.org/2000/svg"
>
<path
        d="M21.3553 27H1.64469C1.18212 27 0.792365 26.8374 0.475419 26.5122C0.158473 26.187 0 25.7871 0 25.3125V1.71387C0 1.23926 0.158473 0.839355 0.475419 0.51416C0.792365 0.188965 1.18212 0.0263672 1.64469 0.0263672H13.1575V9.30762C13.1575 9.53613 13.2346 9.73389 13.3888 9.90088C13.543 10.0679 13.74 10.1514 13.9799 10.1514H23V25.3125C23 25.7871 22.8415 26.187 22.5246 26.5122C22.2076 26.8374 21.8179 27 21.3553 27ZM15.1363 15.4248C15.4447 15.1084 15.5989 14.7261 15.5989 14.2778C15.5989 13.8296 15.4447 13.4473 15.1363 13.1309C14.8279 12.8145 14.4553 12.6562 14.0184 12.6562C13.5816 12.6562 13.2089 12.8145 12.9006 13.1309L9.84246 16.2686L6.78436 13.1309C6.47598 12.8145 6.10335 12.6562 5.66648 12.6562C5.22961 12.6562 4.85698 12.8145 4.5486 13.1309C4.24022 13.4473 4.08603 13.8296 4.08603 14.2778C4.08603 14.7261 4.24022 15.1084 4.5486 15.4248L7.6067 18.5625L4.5486 21.7002C4.24022 22.0166 4.08603 22.3989 4.08603 22.8472C4.08603 23.2954 4.24022 23.6777 4.5486 23.9941C4.85698 24.3105 5.22961 24.4688 5.66648 24.4688C6.10335 24.4688 6.47598 24.3105 6.78436 23.9941L9.84246 20.8564L12.9006 23.9941C13.2089 24.3105 13.5816 24.4688 14.0184 24.4688C14.4553 24.4688 14.8279 24.3105 15.1363 23.9941C15.4447 23.6777 15.5989 23.2954 15.5989 22.8472C15.5989 22.3989 15.4447 22.0166 15.1363 21.7002L12.0782 18.5625L15.1363 15.4248ZM14.8022 0C15.2477 0 15.6246 0.158203 15.933 0.474609L22.5117 7.25098C22.8372 7.58496 23 7.98926 23 8.46387H14.8022V0Z"
        fill="#EB5757"
    />
</svg>
