<svg 
    width="60" 
    height="60" 
    viewBox="0 0 126 126" 
    fill="none" 
    xmlns="http://www.w3.org/2000/svg"
>
<path 
    d="M38.8984 43.8525C38.8118 45.7327 38.3047 47.3965 37.377 48.8438C36.4492 50.2786 35.1442 51.3919 33.4619 52.1836C31.792 52.9753 29.8809 53.3711 27.7285 53.3711C24.1784 53.3711 21.3828 52.2145 19.3418 49.9014C17.3008 47.5882 16.2803 44.3226 16.2803 40.1045V38.7686C16.2803 36.1214 16.738 33.8083 17.6533 31.8291C18.5811 29.8376 19.9108 28.3037 21.6426 27.2275C23.3743 26.139 25.3783 25.5947 27.6543 25.5947C30.9323 25.5947 33.5671 26.4606 35.5586 28.1924C37.5501 29.9118 38.682 32.2868 38.9541 35.3174H32.46C32.4105 33.6722 31.9961 32.4909 31.2168 31.7734C30.4375 31.056 29.25 30.6973 27.6543 30.6973C26.0339 30.6973 24.8464 31.3034 24.0918 32.5156C23.3372 33.7279 22.9414 35.6637 22.9043 38.3232V40.2344C22.9043 43.1165 23.263 45.1761 23.9805 46.4131C24.7103 47.6501 25.9596 48.2686 27.7285 48.2686C29.2253 48.2686 30.3695 47.916 31.1611 47.2109C31.9528 46.5059 32.3734 45.3864 32.4229 43.8525H38.8984ZM40.9023 42.7764C40.9023 40.7725 41.292 38.9912 42.0713 37.4326C42.8506 35.8617 43.9701 34.6556 45.4297 33.8145C46.8893 32.9733 48.6025 32.5527 50.5693 32.5527C53.5752 32.5527 55.944 33.4867 57.6758 35.3545C59.4076 37.21 60.2734 39.7396 60.2734 42.9434V43.166C60.2734 46.2956 59.4014 48.7819 57.6572 50.625C55.9255 52.4557 53.5752 53.3711 50.6064 53.3711C47.749 53.3711 45.4544 52.5176 43.7227 50.8105C41.9909 49.0911 41.057 46.7656 40.9209 43.834L40.9023 42.7764ZM47.1553 43.166C47.1553 45.0215 47.446 46.3822 48.0273 47.248C48.6087 48.1139 49.4684 48.5469 50.6064 48.5469C52.833 48.5469 53.971 46.8337 54.0205 43.4072V42.7764C54.0205 39.1768 52.8701 37.377 50.5693 37.377C48.4788 37.377 47.347 38.9294 47.1738 42.0342L47.1553 43.166ZM66.8975 46.9326C67.887 46.9326 68.7096 47.2295 69.3652 47.8232C70.0208 48.4046 70.3486 49.153 70.3486 50.0684C70.3486 50.9837 70.0208 51.7383 69.3652 52.332C68.7096 52.9134 67.887 53.2041 66.8975 53.2041C65.8955 53.2041 65.0667 52.9072 64.4111 52.3135C63.7679 51.7197 63.4463 50.9714 63.4463 50.0684C63.4463 49.1654 63.7679 48.417 64.4111 47.8232C65.0667 47.2295 65.8955 46.9326 66.8975 46.9326ZM25.5947 70.9844L31.625 89.7803L37.6367 70.9844H46.209V98H39.6777V91.6914L40.3086 78.7773L33.7773 98H29.4727L22.9229 78.7588L23.5537 91.6914V98H17.041V70.9844H25.5947ZM61.3867 98C61.1641 97.5918 60.9661 96.9919 60.793 96.2002C59.6426 97.6475 58.0345 98.3711 55.9688 98.3711C54.0762 98.3711 52.4681 97.8021 51.1445 96.6641C49.821 95.5137 49.1592 94.0726 49.1592 92.3408C49.1592 90.1637 49.9632 88.5186 51.5713 87.4053C53.1794 86.292 55.5173 85.7354 58.585 85.7354H60.5146V84.6777C60.5146 82.8346 59.7168 81.9131 58.1211 81.9131C56.6367 81.9131 55.8945 82.6429 55.8945 84.1025H49.6416C49.6416 82.1605 50.4642 80.5833 52.1094 79.3711C53.7669 78.1589 55.876 77.5527 58.4365 77.5527C60.9971 77.5527 63.0195 78.1774 64.5039 79.4268C65.9883 80.6761 66.749 82.3893 66.7861 84.5664V93.4541C66.8109 95.2972 67.0954 96.7074 67.6396 97.6846V98H61.3867ZM57.4717 93.918C58.251 93.918 58.8942 93.751 59.4014 93.417C59.9209 93.083 60.292 92.7057 60.5146 92.2852V89.0752H58.6963C56.5192 89.0752 55.4307 90.0524 55.4307 92.0068C55.4307 92.5758 55.6224 93.0397 56.0059 93.3984C56.3893 93.7448 56.8779 93.918 57.4717 93.918ZM78.3271 90.5225L76.5645 92.2852V98H70.3115V69.4814H76.5645V84.6221L77.1953 83.7871L81.9082 77.9238H89.4043L82.3721 86.1807L89.8682 98H82.7061L78.3271 90.5225ZM100.389 98.3711C97.3086 98.3711 94.8161 97.4557 92.9111 95.625C91.0062 93.7819 90.0537 91.3883 90.0537 88.4443V87.9248C90.0537 85.8714 90.431 84.0592 91.1855 82.4883C91.9525 80.9173 93.0658 79.7051 94.5254 78.8516C95.985 77.9857 97.7168 77.5527 99.7207 77.5527C102.541 77.5527 104.768 78.431 106.4 80.1875C108.033 81.9316 108.85 84.3685 108.85 87.498V89.9287H96.418C96.6406 91.0544 97.1292 91.9388 97.8838 92.582C98.6383 93.2253 99.6156 93.5469 100.815 93.5469C102.795 93.5469 104.341 92.8542 105.454 91.4688L108.312 94.8457C107.532 95.9219 106.425 96.7816 104.99 97.4248C103.568 98.0557 102.034 98.3711 100.389 98.3711ZM99.6836 82.377C97.8529 82.377 96.7643 83.5892 96.418 86.0137H102.727V85.5312C102.751 84.5293 102.498 83.7562 101.966 83.2119C101.434 82.6553 100.673 82.377 99.6836 82.377Z" 
    fill="#2B2B2B"
/>
<rect 
    x="3.5" 
    y="3.5" 
    width="119" 
    height="119" 
    stroke="#217AFF" 
    stroke-width="7"
/>
</svg>