<svg
    width="25"
    height="26"
    viewBox="0 0 25 26"
    fill="none"
    xmlns="http://www.w3.org/2000/svg"
>
<path
        d="M13.5848 0.493487C13.0556 -0.164496 11.9444 -0.164496 11.4152 0.493487L0.303216 14.3458C0.140201 14.5497 0.0381544 14.7953 0.00879278 15.0545C-0.0205688 15.3136 0.0239451 15.5757 0.137223 15.8108C0.250501 16.0459 0.427951 16.2443 0.649198 16.3833C0.870445 16.5223 1.12652 16.5963 1.38802 16.5968H6.94401V23.8852C6.94401 24.2526 7.09035 24.605 7.35084 24.8647C7.61133 25.1245 7.96462 25.2705 8.33301 25.2705H16.667C17.0354 25.2705 17.3887 25.1245 17.6492 24.8647C17.9096 24.605 18.056 24.2526 18.056 23.8852V16.5968H23.612C23.8735 16.5963 24.1296 16.5223 24.3508 16.3833C24.572 16.2443 24.7495 16.0459 24.8628 15.8108C24.9761 15.5757 25.0206 15.3136 24.9912 15.0545C24.9618 14.7953 24.8598 14.5497 24.6968 14.3458L13.5848 0.493487Z"
        fill="#2FDE9F"
    />
</svg>
