<svg
    width="24"
    height="24"
    viewBox="0 0 24 24"
    fill="none"
    xmlns="http://www.w3.org/2000/svg"
>
<path
        d="M12.9018 0.468677C12.3992 -0.156226 11.3439 -0.156226 10.8413 0.468677L0.287972 13.6245C0.133153 13.8182 0.0362362 14.0515 0.00835073 14.2976C-0.0195347 14.5437 0.0227413 14.7927 0.130324 15.0159C0.237907 15.2392 0.406436 15.4276 0.61656 15.5596C0.826684 15.6917 1.06989 15.7619 1.31824 15.7624H6.59491V22.6844C6.59491 23.0333 6.73389 23.368 6.98128 23.6147C7.22867 23.8614 7.56421 24 7.91407 24H15.8291C16.1789 24 16.5145 23.8614 16.7619 23.6147C17.0093 23.368 17.1482 23.0333 17.1482 22.6844V15.7624H22.4249C22.6733 15.7619 22.9165 15.6917 23.1266 15.5596C23.3367 15.4276 23.5052 15.2392 23.6128 15.0159C23.7204 14.7927 23.7627 14.5437 23.7348 14.2976C23.7069 14.0515 23.61 13.8182 23.4552 13.6245L12.9018 0.468677Z"
        fill="#2FDE9F"
    />
</svg>
